<?xml version="1.0" encoding="iso-8859-1"?>
<!-- Generator: Adobe Illustrator 19.0.0, SVG Export Plug-In . SVG Version: 6.00 Build 0)  -->
<svg version="1.1" id="Capa_1" xmlns="http://www.w3.org/2000/svg" xmlns:xlink="http://www.w3.org/1999/xlink" x="0px" y="0px"
	 viewBox="0 0 368 368" style="enable-background:new 0 0 368 368;" xml:space="preserve" fill="#f5f5f5">
<g>
	<g>
		<circle cx="112.004" cy="304" r="16"/>
	</g>
</g>
<g>
	<g>
		<path d="M216.004,272c-4.416,0-8,3.584-8,8v48c0,13.232-10.768,24-24,24h-144c-13.232,0-24-10.768-24-24v-88c0-4.416-3.584-8-8-8
			s-8,3.584-8,8v88c0,22.056,17.944,40,40,40h144c22.056,0,40-17.944,40-40v-48C224.004,275.584,220.42,272,216.004,272z"/>
	</g>
</g>
<g>
	<g>
		<path d="M344.004,127.992H216.02c4.408-0.008,7.984-3.584,7.984-7.992V40c0-22.056-17.944-40-40.032-40
			C182.54,0,40.004,0,40.004,0s0,0-0.008,0c-10.68,0-20.72,4.16-28.272,11.712C4.172,19.264,0.004,29.32,0.004,40v15.984
			c0,0.008,0,0.008,0,0.016s0,0.008,0,0.016V120c0,4.416,3.584,8,8,8s8-3.584,8-8V64h192v56c0,4.408,3.576,7.984,7.984,8H88.004
			c-0.096,0-0.192,0.04-0.288,0.04c-0.216,0.008-0.424,0.064-0.64,0.088c-0.776,0.096-1.512,0.296-2.232,0.608
			c-0.136,0.056-0.28,0.048-0.416,0.112c-0.072,0.04-0.112,0.104-0.184,0.144c-0.112,0.064-0.24,0.088-0.352,0.152l-48,28.8
			l-32,19.2c-2.416,1.432-3.888,4.04-3.888,6.848s1.472,5.416,3.88,6.856l32,19.2l48,28.8c0.112,0.064,0.24,0.088,0.352,0.152
			c0.072,0.04,0.112,0.112,0.184,0.144c0.312,0.16,0.64,0.24,0.968,0.352c0.208,0.072,0.408,0.168,0.624,0.224
			c0.656,0.168,1.32,0.272,1.984,0.272h256c13.232,0,24-10.768,24-24v-64C368.004,138.76,357.236,127.992,344.004,127.992z
			 M207.996,48H16.004v-8c0-6.408,2.496-12.44,7.024-16.968C27.564,18.504,33.588,16,39.996,16c102.656,0,133.776,0,144-0.792V16
			c13.232,0,24,10.768,24,24V48z M32.004,189.064l-8.456-5.072l8.456-5.072V189.064z M84.708,220.688l-36.704-22.024V169.32
			l36.704-22.024l18.344,36.696L84.708,220.688z M304.004,223.992H100.948l16-32h187.056V223.992z M304.004,175.992H116.948l-16-32
			h203.056V175.992z M352.004,215.992c0,4.408-3.592,8-8,8h-24v-80h24c4.408,0,8,3.592,8,8V215.992z"/>
	</g>
</g>
<g>
	<g>
		<path d="M312.004,48h-32c-4.416,0-8,3.584-8,8s3.584,8,8,8h24v24c0,4.416,3.584,8,8,8c4.416,0,8-3.584,8-8V56
			C320.004,51.584,316.42,48,312.004,48z"/>
	</g>
</g>
<g>
	<g>
		<path d="M312.004,272c-4.416,0-8,3.584-8,8v24h-24c-4.416,0-8,3.584-8,8c0,4.416,3.584,8,8,8h32c4.416,0,8-3.584,8-8v-32
			C320.004,275.584,316.42,272,312.004,272z"/>
	</g>
</g>
<g>
</g>
<g>
</g>
<g>
</g>
<g>
</g>
<g>
</g>
<g>
</g>
<g>
</g>
<g>
</g>
<g>
</g>
<g>
</g>
<g>
</g>
<g>
</g>
<g>
</g>
<g>
</g>
<g>
</g>
</svg>
